<svg xmlns="http://www.w3.org/2000/svg" xmlns:xlink="http://www.w3.org/1999/xlink" xml:space="preserve" width="192" height="192"><defs><clipPath id="b" clipPathUnits="userSpaceOnUse"><use xlink:href="#a"/></clipPath></defs><g clip-path="url(#b)"><path id="a" d="M24 0h144a24 24 0 0 1 24 24v144a24 24 0 0 1-24 24H24a24 24 0 0 1-24-24V24A24 24 0 0 1 24 0" style="display:inline;mix-blend-mode:normal;fill:none;fill-opacity:1;stroke:none;stroke-width:0;stroke-linecap:round;stroke-linejoin:round;paint-order:stroke fill markers"/><path d="M0 0h192v192H0Z" style="display:inline;mix-blend-mode:normal;fill:#2b2a41;fill-opacity:1;stroke-width:0;stroke-linecap:round;stroke-linejoin:round;paint-order:stroke fill markers"/><path d="M135.078 60.567c-7.325-3.35-15.104-5.792-23.224-7.155-1.022 1.76-2.158 4.145-2.953 6.019q-12.954-1.875-25.73 0c-.794-1.874-1.987-4.259-2.952-6.02a91.4 91.4 0 0 0-23.23 7.156c-14.707 21.691-18.682 42.871-16.695 63.768 9.767 7.098 19.193 11.414 28.455 14.253a69 69 0 0 0 6.076-9.824 59.6 59.6 0 0 1-9.597-4.6 36 36 0 0 0 2.328-1.816c18.512 8.46 38.563 8.46 56.847 0 .795.625 1.533 1.25 2.328 1.817a59.6 59.6 0 0 1-9.596 4.6 69 69 0 0 0 6.075 9.823c9.256-2.84 18.74-7.155 28.455-14.253 2.441-24.19-3.867-45.2-16.587-63.768M77.38 111.445c-5.565 0-10.108-5.054-10.108-11.243 0-6.19 4.43-11.243 10.108-11.243 5.622 0 10.221 5.053 10.108 11.243 0 6.19-4.486 11.243-10.108 11.243m37.313 0c-5.565 0-10.114-5.054-10.114-11.243 0-6.19 4.435-11.243 10.114-11.243 5.622 0 10.221 5.053 10.107 11.243 0 6.19-4.429 11.243-10.107 11.243" style="fill:#ecdcff;fill-opacity:1;stroke-width:1"/></g></svg>