<svg xmlns="http://www.w3.org/2000/svg" xmlns:xlink="http://www.w3.org/1999/xlink" xml:space="preserve" width="192" height="192"><defs><clipPath id="b" clipPathUnits="userSpaceOnUse"><use xlink:href="#a"/></clipPath></defs><g clip-path="url(#b)" style="display:inline"><path id="a" d="M24 0h144a24 24 0 0 1 24 24v144a24 24 0 0 1-24 24H24a24 24 0 0 1-24-24V24A24 24 0 0 1 24 0" style="display:inline;mix-blend-mode:normal;fill:none;fill-opacity:1;stroke:none;stroke-width:0;stroke-linecap:round;stroke-linejoin:round;paint-order:stroke fill markers"/><path d="M0 0h192v192H0Z" style="display:inline;mix-blend-mode:normal;fill:#2b2a41;fill-opacity:1;stroke-width:0;stroke-linecap:round;stroke-linejoin:round;paint-order:stroke fill markers"/><path d="M50.766 53.996a13 13 0 0 0-2.926.338 12.8 12.8 0 0 0-3.932 1.648 13 13 0 0 0-3.148 2.786l48.064 45.396q.365.344.76.645a10 10 0 0 0 1.676 1.033 10.3 10.3 0 0 0 1.834.69 11 11 0 0 0 1.927.343 11.2 11.2 0 0 0 2.93-.129 11 11 0 0 0 1.889-.517 10.3 10.3 0 0 0 1.764-.862 9.8 9.8 0 0 0 1.572-1.207l48.064-45.39a13.1 13.1 0 0 0-5.697-4.03 12.8 12.8 0 0 0-4.309-.744zM37.996 65.05c-.09.612-.154 1.234-.154 1.873v58.156c0 .639.065 1.264.154 1.877l32.772-30.957Zm116.01.002L121.232 96l3.036 2.867a31 31 0 0 1 3.468-1.853 30.6 30.6 0 0 1 11.72-2.332 31 31 0 0 1 4.169.285 30.6 30.6 0 0 1 9.918 3.148q.309.17.615.346V66.92c0-.638-.062-1.258-.152-1.87m-78.531 35.392-34.713 32.791a13.1 13.1 0 0 0 4.384 3.475 12.8 12.8 0 0 0 5.62 1.295h59.408c.054-.166.75-1.631.756-1.65a30.6 30.6 0 0 1-1.506-5.077 30.62 30.62 0 0 1 8.38-27.627q.556-.477 1.133-.93l-2.408-2.275-8.914 8.416a16.3 16.3 0 0 1-3.972 2.766 16.7 16.7 0 0 1-2.963 1.135 17 17 0 0 1-3.104.566q-.786.071-1.574.072a17.5 17.5 0 0 1-4.68-.638 17 17 0 0 1-2.963-1.135 16.5 16.5 0 0 1-2.726-1.701q-.644-.496-1.244-1.065zm63.986.41c-13.502 0-24.448 10.946-24.45 24.448a22.7 22.7 0 0 0 2.731 11.2l-2.445 6.689c-1.421 3.903 2.364 7.688 6.267 6.267l6.69-2.445a22.7 22.7 0 0 0 11.207 2.738 24.3 24.3 0 0 0 13.643-4.172l-3.05-3.855a19.46 19.46 0 0 1-10.593 3.138 17.18 17.18 0 0 1-10.596-3.26l-8.965 3.26 3.26-8.964a17.18 17.18 0 0 1-3.26-10.596c0-10.803 8.758-19.56 19.56-19.56s19.56 8.757 19.56 19.56v3.26c-.002 5.431-8.153 5.431-8.15 0v-3.26c.004-12.46-17.097-15.899-21.923-4.428-4.827 11.47 9.588 21.292 18.492 12.578 4.872 7.455 16.456 4.015 16.47-4.89v-4.075c-.441-13.182-11.258-23.639-24.448-23.632m-.602 17.958a6.52 6.52 0 1 1 .602 13.01c-8.276-.024-8.84-12.223-.602-13.01" style="display:inline;fill:#ecdcff;stroke-width:0"/></g></svg>