<svg xmlns="http://www.w3.org/2000/svg" xmlns:xlink="http://www.w3.org/1999/xlink" xml:space="preserve" width="192" height="192"><defs><clipPath id="b" clipPathUnits="userSpaceOnUse"><use xlink:href="#a"/></clipPath></defs><g clip-path="url(#b)"><path id="a" d="M24 0h144a24 24 0 0 1 24 24v144a24 24 0 0 1-24 24H24a24 24 0 0 1-24-24V24A24 24 0 0 1 24 0" style="display:inline;mix-blend-mode:normal;fill:none;fill-opacity:1;stroke:none;stroke-width:0;stroke-linecap:round;stroke-linejoin:round;paint-order:stroke fill markers"/><path d="M0 0h192v192H0Z" style="display:inline;mix-blend-mode:normal;fill:#2b2a41;fill-opacity:1;stroke-width:0;stroke-linecap:round;stroke-linejoin:round;paint-order:stroke fill markers"/><path fill="#fff" fill-rule="evenodd" d="M137.912 53.585H42.966a6.947 6.947 0 0 0-6.94 6.94v64.008a13.876 13.876 0 0 0 13.88 13.882h65.52a13.876 13.876 0 0 0 13.876-13.882v-9.048h8.61a30.063 30.063 0 0 0 30.063-30.062v-1.77a30.063 30.063 0 0 0-30.063-30.062m-8.61 45.853v-29.8h7.851a14.903 14.903 0 1 1 0 29.8zM96.034 72.446q-12.025 0-15.236 9.404-3.222-9.404-15.241-9.404c-12.025 0-16.485 14.961-10.18 24.739q6.304 9.784 25.421 24.739 19.112-14.955 25.417-24.739c6.304-9.778 1.844-24.74-10.18-24.74" clip-rule="evenodd" style="fill:#ecdcff;fill-opacity:1;stroke-width:.941829"/></g></svg>