<svg xmlns="http://www.w3.org/2000/svg" xmlns:xlink="http://www.w3.org/1999/xlink" xml:space="preserve" width="192" height="192"><defs><clipPath id="b" clipPathUnits="userSpaceOnUse"><use xlink:href="#a"/></clipPath></defs><g clip-path="url(#b)"><path id="a" d="M24 0h144a24 24 0 0 1 24 24v144a24 24 0 0 1-24 24H24a24 24 0 0 1-24-24V24A24 24 0 0 1 24 0" style="display:inline;mix-blend-mode:normal;fill:none;fill-opacity:1;stroke:none;stroke-width:0;stroke-linecap:round;stroke-linejoin:round;paint-order:stroke fill markers"/><path d="M0 0h192v192H0Z" style="display:inline;mix-blend-mode:normal;fill:#2b2a41;fill-opacity:1;stroke-width:0;stroke-linecap:round;stroke-linejoin:round;paint-order:stroke fill markers"/><path d="M67.954 60.5a10.143 10.143 0 1 1-20.287-.009 10.143 10.143 0 0 1 20.287.01m.304 17.65H47.971v63.497h20.287zm32.053 0H80.126v63.497h19.982v-33.32c0-18.563 24.192-20.287 24.192 0v33.32h20.033V101.43c0-31.292-35.806-30.126-44.225-14.759z" style="fill:#ecdcff;fill-opacity:1;stroke:none;stroke-width:0;stroke-dasharray:none"/></g></svg>