<svg xmlns="http://www.w3.org/2000/svg" xmlns:xlink="http://www.w3.org/1999/xlink" xml:space="preserve" width="192" height="192"><defs><clipPath id="b" clipPathUnits="userSpaceOnUse"><use xlink:href="#a"/></clipPath></defs><g clip-path="url(#b)"><path id="a" d="M24 0h144a24 24 0 0 1 24 24v144a24 24 0 0 1-24 24H24a24 24 0 0 1-24-24V24A24 24 0 0 1 24 0" style="display:inline;mix-blend-mode:normal;fill:none;fill-opacity:1;stroke:none;stroke-width:0;stroke-linecap:round;stroke-linejoin:round;paint-order:stroke fill markers"/><path d="M0 0h192v192H0Z" style="display:inline;mix-blend-mode:normal;fill:#2b2a41;fill-opacity:1;stroke-width:0;stroke-linecap:round;stroke-linejoin:round;paint-order:stroke fill markers"/><path d="M108.012 81.88H83.878a2.01 2.01 0 0 0-2.007 2.009v24.138c0 1.106.896 2.008 2.007 2.008h24.134a2.005 2.005 0 0 0 2.008-2.008V83.889a2.01 2.01 0 0 0-2.008-2.008m-2.954-28.413a33.3 33.3 0 0 1 33.42 33.096l.15 31.049c0 1.4 0 4.314-7.016 4.314-7.02 0-7.06-2.76-7.06-4.314l-.174-31.05a19.18 19.18 0 0 0-19.19-19.04l-31.07.149c-1.404 0-4.314 0-4.314-7.015s2.845-7.06 4.314-7.06zm-18.434 85.065a33.28 33.28 0 0 1-33.251-33.251V74.218c0-1.385 0-4.32 7.04-4.32 7.034 0 7.06 2.806 7.06 4.32v31.064a19.18 19.18 0 0 0 19.146 19.151h31.068c1.38 0 4.315 0 4.315 7.04 0 7.035-2.91 7.06-4.315 7.06z" style="fill:#ecdcff;fill-opacity:1;stroke:none;stroke-width:.107183"/></g></svg>