<svg xmlns="http://www.w3.org/2000/svg" xmlns:xlink="http://www.w3.org/1999/xlink" xml:space="preserve" width="192" height="192"><defs><clipPath id="b" clipPathUnits="userSpaceOnUse"><use xlink:href="#a"/></clipPath></defs><g clip-path="url(#b)"><path id="a" d="M24 0h144a24 24 0 0 1 24 24v144a24 24 0 0 1-24 24H24a24 24 0 0 1-24-24V24A24 24 0 0 1 24 0" style="display:inline;mix-blend-mode:normal;fill:none;fill-opacity:1;stroke:none;stroke-width:0;stroke-linecap:round;stroke-linejoin:round;paint-order:stroke fill markers"/><path d="M0 0h192v192H0Z" style="display:inline;mix-blend-mode:normal;fill:#2b2a41;fill-opacity:1;stroke-width:0;stroke-linecap:round;stroke-linejoin:round;paint-order:stroke fill markers"/></g><path d="m85.014 109.622 37.622 27.797c4.298 2.37 7.393 1.145 8.463-3.986l15.32-72.173c1.57-6.288-2.4-9.142-6.501-7.278L49.968 88.66c-6.138 2.468-6.097 5.89-1.116 7.42l23.08 7.203 53.431-33.71c2.52-1.531 4.833-.708 2.934.977z" style="fill:#ecdcff;fill-opacity:1;fill-rule:nonzero;stroke:none;stroke-width:.296064;stroke-linecap:butt;stroke-linejoin:miter;stroke-miterlimit:10;stroke-dasharray:none"/></svg>