<svg xmlns="http://www.w3.org/2000/svg" xmlns:xlink="http://www.w3.org/1999/xlink" xml:space="preserve" width="192" height="192"><defs><clipPath id="b" clipPathUnits="userSpaceOnUse"><use xlink:href="#a"/></clipPath></defs><g clip-path="url(#b)" style="display:inline"><path id="a" d="M24 0h144a24 24 0 0 1 24 24v144a24 24 0 0 1-24 24H24a24 24 0 0 1-24-24V24A24 24 0 0 1 24 0" style="display:inline;mix-blend-mode:normal;fill:none;fill-opacity:1;stroke:none;stroke-width:0;stroke-linecap:round;stroke-linejoin:round;paint-order:stroke fill markers"/><path d="M0 0h192v192H0Z" style="display:inline;mix-blend-mode:normal;fill:#2b2a41;fill-opacity:1;stroke-width:0;stroke-linecap:round;stroke-linejoin:round;paint-order:stroke fill markers"/><path d="M96 45.426a49.3 49.3 0 0 0-14.068 2.049 49.5 49.5 0 0 0-12.928 5.98 50 50 0 0 0-10.742 9.426 50.8 50.8 0 0 0-10.174 18.871A51.2 51.2 0 0 0 46.064 96a51.2 51.2 0 0 0 4.514 21.01 50.8 50.8 0 0 0 7.684 12.11 50 50 0 0 0 16.994 12.886 49.5 49.5 0 0 0 13.637 4.053 49.3 49.3 0 0 0 27.851-4.055 50 50 0 0 0 1.35-.746v-7.897c-.448.265-.896.529-1.354.778a43.4 43.4 0 0 1-5.78 2.617 43 43 0 0 1-2.022.68A43.2 43.2 0 0 1 96 139.396q-1.127 0-2.24-.054a43.6 43.6 0 0 1-6.53-.826 43 43 0 0 1-4.168-1.078 43 43 0 0 1-2.023-.68 43 43 0 0 1-3.904-1.654 43 43 0 0 1-1.875-.963 44 44 0 0 1-1.824-1.047 44 44 0 0 1-3.473-2.35 44 44 0 0 1-1.643-1.293 44 44 0 0 1-1.582-1.363 44 44 0 0 1-1.51-1.445 44 44 0 0 1-4.103-4.737 44 44 0 0 1-3.395-5.295 43.4 43.4 0 0 1-2.615-5.779 43 43 0 0 1-.683-2.023 43 43 0 0 1-1.077-4.168 43.5 43.5 0 0 1-.88-8.768 44 44 0 0 1 .222-4.45 43.5 43.5 0 0 1 1.147-6.425q.27-1.04.588-2.06a43 43 0 0 1 1.463-4.002 43 43 0 0 1 1.835-3.803 43.5 43.5 0 0 1 7.5-10.033 44 44 0 0 1 1.51-1.444 44 44 0 0 1 1.581-1.363 44 44 0 0 1 1.643-1.299q.84-.625 1.709-1.209A44 44 0 0 1 75.26 57.6a43 43 0 0 1 3.804-1.832 43 43 0 0 1 1.975-.782 43 43 0 0 1 2.023-.681A43.2 43.2 0 0 1 93.76 52.4a44 44 0 0 1 2.24-.056 44 44 0 0 1 4.45.224q1.095.113 2.175.28 1.08.163 2.145.379a43 43 0 0 1 4.168 1.078 43 43 0 0 1 2.023.68 43 43 0 0 1 3.904 1.656q.951.456 1.875.959a44 44 0 0 1 3.588 2.181q.87.585 1.71 1.211a45 45 0 0 1 1.642 1.297q.807.665 1.582 1.365a44 44 0 0 1 2.95 2.955 44 44 0 0 1 2.663 3.227 44 44 0 0 1 2.348 3.473 44 44 0 0 1 2.01 3.699q.459.95.872 1.926a43 43 0 0 1 2.051 6.062q.27 1.043.489 2.108.216 1.061.38 2.14a43.5 43.5 0 0 1 .5 6.627 44 44 0 0 1-.222 4.445 43.6 43.6 0 0 1-1.147 6.426 43 43 0 0 1-.191.672l5.07 5.215a51 51 0 0 0 .877-2.38 51.2 51.2 0 0 0 1.963-16.731 51 51 0 0 0-.9-7.385 51.1 51.1 0 0 0-4.936-13.973 50.8 50.8 0 0 0-8.73-11.922 50.2 50.2 0 0 0-11.77-8.84 50 50 0 0 0-4.43-2.123A49.6 49.6 0 0 0 96 45.425m0 13.12q-1.554 0-3.078.126a51 51 0 0 0-1.424 2.516 60 60 0 0 0-3.627 8.398 69 69 0 0 0-.982 3.057 76 76 0 0 0-2.194 9.822 70 70 0 0 0 5.418.623 74 74 0 0 0 5.625.21 75 75 0 0 0 8.754-.519 70 70 0 0 0 2.799-.39 79 79 0 0 0-1.332-6.63 73 73 0 0 0-.861-3.161 69 69 0 0 0-.98-3.045 65 65 0 0 0-1.098-2.926 60 60 0 0 0-1.207-2.793 56 56 0 0 0-1.319-2.656 51 51 0 0 0-1.416-2.506A38 38 0 0 0 96 58.547m-10.937 1.632a37 37 0 0 0-7.55 3.267 38 38 0 0 0-4.077 2.7 37 37 0 0 0-2.5 2.082 39 39 0 0 0-2.313 2.283q-.55.596-1.076 1.217a38 38 0 0 0-2.914 3.918 45 45 0 0 0 3.14 1.689q1.636.801 3.391 1.506 1.758.703 3.623 1.305a61 61 0 0 0 3.826 1.097 86 86 0 0 1 1.116-5.717 81 81 0 0 1 1.46-5.437 75 75 0 0 1 1.786-5.129 68 68 0 0 1 2.088-4.781m21.876.002q.554 1.144 1.07 2.332.52 1.188 1.003 2.424a71 71 0 0 1 1.781 5.095q.404 1.314.77 2.666a81 81 0 0 1 1.289 5.543q.279 1.423.513 2.875a61 61 0 0 0 3.801-1.125 55 55 0 0 0 3.592-1.332 50 50 0 0 0 3.357-1.523 46 46 0 0 0 3.108-1.713 38 38 0 0 0-1.887-2.615 37.6 37.6 0 0 0-4.395-4.696 37.5 37.5 0 0 0-7.953-5.478 38 38 0 0 0-4.49-1.938 37 37 0 0 0-1.559-.515m23.249 20.695q-.86.512-1.76.998a52 52 0 0 1-3.744 1.844q-.975.433-1.98.838a61 61 0 0 1-4.16 1.5 66 66 0 0 1-4.403 1.252 92 92 0 0 1 .369 8.26 93 93 0 0 1-.428 8.857 70 70 0 0 1 4.027 1.14c.089-3.093 2.17-5.825 4.71-6.88a7.1 7.1 0 0 1 2.11-.504q.421-.036.85-.028c2 .04 4.091.818 5.541 2.434l-.164-.176 1.57 1.615a37 37 0 0 0 .547-4.166 37.6 37.6 0 0 0-.41-7.865 37 37 0 0 0-2.675-9.119m-68.477.248a38 38 0 0 0-1.3 3.475 37 37 0 0 0-.516 1.798 37 37 0 0 0-1.166 7.524q-.053.97-.053 1.955a38 38 0 0 0 .203 3.877 37 37 0 0 0 .584 3.764 38 38 0 0 0 .947 3.63 37 37 0 0 0 1.3 3.477q.87-.508 1.78-.988a53 53 0 0 1 3.781-1.819 59 59 0 0 1 4.067-1.59 65 65 0 0 1 4.32-1.35 70 70 0 0 1 2.248-.577 92 92 0 0 1-.414-8.733q0-2.071.09-4.105a90 90 0 0 1 .27-4.025 69 69 0 0 1-4.424-1.221 65 65 0 0 1-4.182-1.47 56 56 0 0 1-5.764-2.636 49 49 0 0 1-1.771-.986m46.31 7.424a76 76 0 0 1-6.025.71 79 79 0 0 1-6.258.247 81 81 0 0 1-5.992-.225 76 76 0 0 1-5.771-.652 88 88 0 0 0-.278 6.94 88 88 0 0 0 .324 7.542q1.41-.21 2.85-.373a78 78 0 0 1 8.867-.494 81 81 0 0 1 9.266.537q1.5.179 2.967.41a86 86 0 0 0 .336-7.623zm17.774 15.55a1.66 1.66 0 0 0-1.701 1.669v39.19c0 1.42 1.706 2.256 2.76 1.173l7.904-8.13 4.84 11.776c.354.834 1.293 1.252 2.129.887l4.482-1.955a1.693 1.693 0 0 0 .861-2.187l-5.091-12.405h9.675c1.415 0 2.187-1.82 1.14-2.84l-25.94-26.681a1.46 1.46 0 0 0-1.06-.496m-30.057 4.348a76 76 0 0 0-5.574.21q-1.37.102-2.715.253-1.344.154-2.66.356a79 79 0 0 0 1.398 6.69q.417 1.62.895 3.185a68 68 0 0 0 2.156 6 59 59 0 0 0 1.252 2.802q.654 1.366 1.362 2.659.708 1.29 1.464 2.502 1.331.094 2.686.095l2.684-.095q.754-1.209 1.459-2.495t1.359-2.648q.652-1.36 1.248-2.791.598-1.432 1.137-2.93.537-1.496 1.013-3.054.48-1.56.897-3.174a75 75 0 0 0 1.396-6.67 70 70 0 0 0-2.775-.385 72 72 0 0 0-8.682-.51m-17.027 2.032q-1.978.495-3.856 1.097a56 56 0 0 0-3.644 1.315 51 51 0 0 0-3.414 1.51 43 43 0 0 0-3.162 1.699 37.5 37.5 0 0 0 4.052 5.199q.562.603 1.149 1.182a37 37 0 0 0 2.45 2.205 38 38 0 0 0 4.019 2.89 37 37 0 0 0 2.89 1.63q.744.375 1.504.716a37 37 0 0 0 3.115 1.236q.796.276 1.608.516a63 63 0 0 1-2.162-4.797 70 70 0 0 1-1.856-5.152 77 77 0 0 1-.802-2.703 80 80 0 0 1-1.35-5.625 85 85 0 0 1-.541-2.918m34.557.128a82 82 0 0 1-1.89 8.489 77 77 0 0 1-1.683 5.29 70 70 0 0 1-.963 2.52 67 67 0 0 1-2.152 4.768 37 37 0 0 0 4.674-1.73 37 37 0 0 0 5.728-3.206 39 39 0 0 0 1.112-.869v-13.77a55 55 0 0 0-.996-.368 60 60 0 0 0-3.83-1.124" style="display:inline;fill:#ecdcff;stroke-width:0;stroke-linecap:round;stroke-linejoin:round"/></g></svg>