<svg xmlns="http://www.w3.org/2000/svg" xmlns:xlink="http://www.w3.org/1999/xlink" xml:space="preserve" width="192" height="192"><defs><clipPath id="b" clipPathUnits="userSpaceOnUse"><use xlink:href="#a"/></clipPath></defs><g clip-path="url(#b)"><path id="a" d="M24 0h144a24 24 0 0 1 24 24v144a24 24 0 0 1-24 24H24a24 24 0 0 1-24-24V24A24 24 0 0 1 24 0" style="display:inline;mix-blend-mode:normal;fill:none;fill-opacity:1;stroke:none;stroke-width:0;stroke-linecap:round;stroke-linejoin:round;paint-order:stroke fill markers"/><path d="M0 0h192v192H0Z" style="display:inline;mix-blend-mode:normal;fill:#2b2a41;fill-opacity:1;stroke-width:0;stroke-linecap:round;stroke-linejoin:round;paint-order:stroke fill markers"/><path d="M97.31 53.135c2.861.015 10.022.085 17.63.39l2.697.117c7.66.363 15.314.982 19.11 2.04 5.063 1.423 9.042 5.574 10.387 10.835 2.142 8.354 2.41 24.66 2.443 28.606l.006.817v.115l-.006.818c-.032 3.946-.3 20.252-2.443 28.606-1.363 5.28-5.343 9.431-10.387 10.834-3.796 1.058-11.45 1.678-19.11 2.04l-2.697.118c-7.608.305-14.769.374-17.63.39l-1.257.005h-.111l-1.255-.005c-6.057-.032-31.383-.307-39.438-2.548-5.064-1.423-9.043-5.573-10.388-10.834-2.142-8.354-2.41-24.66-2.443-28.606v-1.75c.033-3.946.301-20.252 2.443-28.606 1.363-5.281 5.343-9.431 10.388-10.834 8.055-2.242 33.38-2.515 39.438-2.548zM85.28 77.243v37.51l32.151-18.755Z" style="fill:#ecdcff;fill-opacity:1;stroke:none;stroke-width:0;stroke-dasharray:none"/></g></svg>